# xmcd
#
# Track frame offsets:
#	150
#	15804
#	31617
#	47263
#	62867
#	79347
#	96164
#	113542
#	129108
#	145622
#	160454
#	175527
#
# Disc length: 2579 seconds
#
# Revision: 0
# Processed by: cddbd v1.5.2PL0 Copyright (c) Steve Scherf et al.
# Submitted via: EasyCDDAExtractor 16.0.4.1
#
DISCID=7e0a110c
DTITLE=Milo Hrnić - Sve Za Ljubav
DYEAR=2011
DGENRE=Country and Folk
TTITLE0=Samo Ostani
TTITLE1=Sve Za Ljubav
TTITLE2=Samo Sol
TTITLE3=Di Ste Prijatelji Moji
TTITLE4=Budi Moja Jedina
TTITLE5=Čekam Na Rivi
TTITLE6=Hajduk Volim i Gotovo
TTITLE7=Mali Čovik
TTITLE8=Gdje Je Moja Ljubav Prava
TTITLE9=Goris Li I Ti Kao I Ja
TTITLE10=Vrati Se
TTITLE11=Kad Prigradicu Vidim
EXTD=
EXTT0=
EXTT1=
EXTT2=
EXTT3=
EXTT4=
EXTT5=
EXTT6=
EXTT7=
EXTT8=
EXTT9=
EXTT10=
EXTT11=
PLAYORDER=
